<?xml version="1.0" ?>
<!DOCTYPE svg  PUBLIC '-//W3C//DTD SVG 1.1//EN'  'http://www.w3.org/Graphics/SVG/1.1/DTD/svg11.dtd'>
<svg height="40px"
    id="co_x5F_food_x5F_3"
    style="enable-background:new 0 0 40 40; fill:white;"
    version="1.1" viewBox="0 0 40 40" width="40px"
    xml:space="preserve" xmlns="http://www.w3.org/2000/svg"
    xmlns:xlink="http://www.w3.org/1999/xlink">
    <path d="M10.014,7.004c0-1.999,2-2.999,2-3.999h0c-0.275,0-0.5-0.225-0.5-0.499l0,0  c0-0.275,0.225-0.501,0.5-0.501c5.333,0,12.665,0,17.997,0c0.275,0,0.5,0.227,0.5,0.501l0,0c0,0.274-0.225,0.499-0.5,0.499  c0,1,2,2,2,3.999c0,9.665,0,18.33,0,27.995c0,0.999-2,0.999-2,1.998c0,0.041,0,0.081,0,0.12c0,0.485-0.395,0.88-0.88,0.88  c-4.745,0-11.491,0-16.236,0c-0.484,0.001-0.879-0.395-0.879-0.879c0-0.04,0-0.08,0-0.121c0-0.999-2-0.999-2-1.998  C10.014,25.001,10.014,17.002,10.014,7.004L10.014,7.004z M13.894,14.003c-0.485,0-0.88,0.396-0.88,0.88V25.12  c0,0.485,0.395,0.88,0.88,0.88H28.13c0.485,0,0.88-0.395,0.88-0.88V14.883c0-0.484-0.395-0.88-0.88-0.88H13.894z" style="fill-rule:evenodd;clip-rule:evenodd;"/>
</svg>