<?xml version="1.0" ?>
<!DOCTYPE svg  PUBLIC '-//W3C//DTD SVG 1.1//EN'  'http://www.w3.org/Graphics/SVG/1.1/DTD/svg11.dtd'>
<svg
    height="40px"
    id="el_x5F_food_x5F_3"
    style="enable-background:new 0 0 40 40;"
    version="1.1" viewBox="0 0 40 40"
    width="40px" xml:space="preserve"
    xmlns="http://www.w3.org/2000/svg"
    xmlns:xlink="http://www.w3.org/1999/xlink">
    <path d="M21.978,5.217v0.214c0,1.072,0.217,1.991,0.697,2.95  l2.374,4.746c0.64,1.279,0.929,2.505,0.929,3.935v5.492c0,0.992-0.137,1.84-0.452,2.782l-0.867,2.602  c-0.423,1.268-0.281,2.537,0.406,3.663c0.599,0.98,0.783,2.025,0.558,3.152l-0.433,2.161c-0.125,0.623-0.659,1.062-1.294,1.062  h-0.461c-0.303,0-0.564-0.108-0.778-0.322l-0.211-0.211c-0.257-0.258-0.677-0.258-0.934,0L21.3,37.653  c-0.214,0.214-0.475,0.322-0.777,0.322h-1.088c-0.303,0-0.564-0.108-0.778-0.322l-0.211-0.211c-0.257-0.258-0.676-0.258-0.933,0  l-0.211,0.211c-0.214,0.214-0.475,0.322-0.778,0.322h-0.462c-0.635,0-1.17-0.438-1.294-1.062l-0.433-2.161  c-0.225-1.127-0.041-2.172,0.558-3.153c0.687-1.125,0.828-2.395,0.406-3.662l-0.868-2.603c-0.313-0.941-0.451-1.789-0.451-2.781  v-5.492c0-1.43,0.289-2.655,0.929-3.935l2.374-4.746c0.48-0.959,0.697-1.877,0.697-2.95V5.217H17.35V2.65  c0-0.363,0.296-0.66,0.66-0.66h3.936c0.363,0,0.66,0.297,0.66,0.66v2.566H21.978z" style="fill-rule:evenodd;clip-rule:evenodd;fill:#FFFFFF;"/>
</svg>